<svg id="Layer_1" data-name="Layer 1" xmlns="http://www.w3.org/2000/svg" viewBox="0 0 851.51 425.1"><defs><style>.cls-1{fill:#fff;}</style></defs><path class="cls-1" d="M35.7,119.58H84.39q1.45,0,2.19,7.71h7.71c1,.21,1.46.7,1.46,1.46l-2.19,1.46a18.76,18.76,0,0,0-2.81-.73,5.49,5.49,0,0,1-2.82.73v-.73a4.89,4.89,0,0,1-2.08.73v83.3c0,1.12,1.87,1.81,5.63,2.09a5.43,5.43,0,0,1,2.81-.73A7.71,7.71,0,0,0,95.75,217v2.19c0,.63-.73,1.33-2.19,2.09H89.39c-1.46,0-2.19-.24-2.19-.73l-3.44.73H76.67c-1,.14-1.46.62-1.46,1.46v2.81a1.38,1.38,0,0,0,1.46,1.36H91.48v49.42a5.43,5.43,0,0,0,.73,2.81c-.77,2.37-2.19,3.55-4.28,3.55a.64.64,0,0,0-.73-.73l-.62,1.46V303.8c.13,1,.59,1.46,1.35,1.46a5.46,5.46,0,0,1,2.82-.73,11.36,11.36,0,0,1,1.46,5.63l-1.46.73H59.68q-5.94,0-19-.73V306l-5-2.81a.65.65,0,0,0-.73-.73l.73-5v-4.17a5.17,5.17,0,0,0-.73-2.81,5.59,5.59,0,0,0,.73-2.82V284.1q0-1.37-6.36-3.55a4.89,4.89,0,0,1-.73-2.08c.77-2,1.49-2.92,2.19-2.92h2.81c.84,0,1.53,2.12,2.09,6.36h3.54c1,0,1.46-.45,1.46-1.36V228.32a1.29,1.29,0,0,0-1.46-1.46q-12.41-.74-14.8-.73l-.73-1.36v-2.08c0-.7.69-1.43,2.08-2.19a.64.64,0,0,1,.73.73L28,220.5H42.79a1.2,1.2,0,0,0,1.35-1.36V217l-1.35-2.08-5,.73H36.43c-.7,0-1.39-.69-2.09-2.09V131.57l.63-1.36c-.7-.48-2.09-.73-4.17-.73V128h3.54v-7C34.48,120.07,34.93,119.58,35.7,119.58Zm3.54,9.17c.14,1,.63,1.46,1.46,1.46h1.36a1.46,1.46,0,0,0,0-2.92H40.7C39.73,127.5,39.24,128,39.24,128.75Z"/><path class="cls-1" d="M128.37,119.47H245.66a5.53,5.53,0,0,1,2.81.73,5.54,5.54,0,0,1,2.82-.73,5.15,5.15,0,0,1,1.45,2.82l-.72,1.46a10.27,10.27,0,0,0,2.81,5.63v26.69l-.73,1.35-3.55-.62H235.86l-4.28.62a7.51,7.51,0,0,0-3.44-.62l-4.9.62a6.27,6.27,0,0,0-2.81-.62l-1.46.62c-.49,0-.73-.21-.73-.62l-3.44.62h-7.09V182q0,1.46-5.63,2.19c0,1.81-.46,2.71-1.36,2.71h-6.36c-.9.21-1.35.69-1.35,1.46s.59,1.35,1.35,1.35h7.09l1.36.73-.73,3.55v6.36l4.27,2.81c0,.91-2.81,1.6-8.44,2.09v41.39c0,1.32-2.37,2.26-7.09,2.81v.73h10.63q4.17,1.88,4.17,2.82V308.6a1.2,1.2,0,0,1-1.36,1.35H176.12q-7.1,0-21.06-.73-.74-12.93-.73-19V252.3Q148,251,148,249.48l-1.36.73h-6.36v-.73a1.38,1.38,0,0,1,1.46-1.35l3.44.73a4.92,4.92,0,0,1,2.19-.73V205.9c.14-.9.59-1.35,1.36-1.35h6.36v-2.82c-2.37,0-3.55-.45-3.55-1.35V191.2a1.29,1.29,0,0,0-1.46-1.46H143.8c-1,0-1.46-.45-1.46-1.35s.62-1.46,1.46-1.46h6.25l2.82-3.44h3.54l.73-6.36c0-.9-.24-1.36-.73-1.36l.73-3.54V161a4.16,4.16,0,0,0-2.81-4.17c-.49,0-.73.21-.73.62l-3.55-.62H109.39a1.29,1.29,0,0,1-1.46-1.46V128.65c-1.88,0-2.81-.45-2.81-1.36v-.73a5.43,5.43,0,0,1,.73-2.81,5.46,5.46,0,0,1-.73-2.82.65.65,0,0,0,.73-.73Q121,119.48,128.37,119.47Zm6.25,67.46h1.46c.9.21,1.36.69,1.36,1.46a1.2,1.2,0,0,1-1.36,1.35h-1.46a1.19,1.19,0,0,1-1.35-1.35C133.4,187.42,133.86,186.93,134.62,186.93Zm19.71,55.57v1.35h.73V242.5Z"/><path class="cls-1" d="M282.54,119.58h99.88c1,.14,1.46.62,1.46,1.46v34.72l-1.46,2.08-4.9-.73q-61.41.73-66.62.73v3.54a1.29,1.29,0,0,1-1.46,1.46H296.72c-1,.15-1.46.6-1.46,1.36v4.27c.14,1,.63,1.46,1.46,1.46h.73c1.39,0,2.09-.24,2.09-.73q7.81.74,9.17,2.09h15.64c1,.14,1.46.63,1.46,1.46v.73q-6.46.63-12.09.62h-6.36v22c.14,1,.59,1.46,1.35,1.46H381.8c.9.14,1.35.59,1.35,1.36v34c0,.69-.69,1.42-2.08,2.19h-58.8c-.7,0-1.43.69-2.19,2.08v23.35l.73,3.55h7.09c1,.21,1.46.69,1.46,1.46v8.55c0,.9-.49,1.35-1.46,1.35h-7.09a5.69,5.69,0,0,1-.73,2.19v15.54l.73,3.54h20.54c1,.14,1.45.63,1.45,1.46v.63c0,1-.72,1.46-2.18,1.46q-5.53,0-19.81.73a.64.64,0,0,1-.73.72l.73,4.91v3.54a1.29,1.29,0,0,1-1.46,1.46h-48.9c-.9,0-1.35-.49-1.35-1.46v-8.45c.13-1,.59-1.45,1.35-1.45h16.37a38.25,38.25,0,0,1,4.27-.73v-2.09l-18.45-.73h-2.19a1.19,1.19,0,0,1-1.35-1.35V276.17c.13-1,.59-1.46,1.35-1.46h7.09v-9.17q0-1.46-8.44-2.09V198.19c-1,0-1.46-.21-1.46-.63-.49,0-.73.21-.73.63l-4.9-.63h-5c-.9,0-1.35-.48-1.35-1.46V175.56c.13-1,.59-1.46,1.35-1.46q12.93-.61,17-.62c0-1-.7-1.46-2.09-1.46a103.84,103.84,0,0,1-20.54-2.09h-7.09V164.2a1.39,1.39,0,0,1,1.46-1.36h4.17c.49,0,.73.21.73.63q1.26-.53,8.55-1.35V121.66l.73-1.35Q275.15,119.57,282.54,119.58ZM259.19,264.81l.73,1.46v7.09c0,.9-.49,1.35-1.46,1.35l-.73-1.35v-7.09C257.87,265.3,258.36,264.81,259.19,264.81Zm4.9,0h1.46a1.38,1.38,0,0,1,1.36,1.46v2.81c0,.49-.21.73-.63.73l.63,1.36v2.19a1.2,1.2,0,0,1-1.36,1.35h-1.46a1.19,1.19,0,0,1-1.35-1.35v-7.09C262.87,265.3,263.33,264.81,264.09,264.81Z"/><path class="cls-1" d="M412,119.27h100.3c.62,0,1.32.69,2.08,2.08v24.08c0,.63.7,1.33,2.09,2.09h2.81a5.63,5.63,0,0,0,2.92-.73c2.3.62,3.44,1.32,3.44,2.09v1.45a1.2,1.2,0,0,1-1.35,1.36h-3.55v3.54a1.29,1.29,0,0,1-1.46,1.46H470.61q-7.41,0-22.52.73v6.36c.13.91.59,1.36,1.35,1.36h6.36c1,.14,1.46.62,1.46,1.46v30.34h61.41q1.35.21,1.35,1.35v10.64c0,.9-2.57,1.6-7.71,2.08l-1.46-.73-4.17.73a5.74,5.74,0,0,0-2.19-.73l-.73,3.55v12l.73,7.09-2.09,1.45h-60c0,1.61-1.63,2.54-4.9,2.82l-4.27-.73h-1.36c-1,.14-1.46.63-1.46,1.46v.63h4.28l7.09.73v23.35q0,3.75,4.17,4.17a5.43,5.43,0,0,0,.73,2.81,5.49,5.49,0,0,0-.73,2.82v.73H513c.9,0,1.6,2.36,2.08,7.09h10.53c1,.14,1.46.59,1.46,1.35a1.29,1.29,0,0,1-1.46,1.46h-7.71l-3.55.73v26.8H398.67a.65.65,0,0,1-.73-.73l-1.46.73h-4.17c-.7,0-1.43-.7-2.19-2.09V307a.65.65,0,0,1,.73-.73l-.73-1.35V288l-3.55-.62h-6.25a1.29,1.29,0,0,1-1.46-1.46v-1.46a1.39,1.39,0,0,1,1.46-1.36q11.78-.72,18.35-.73h2.81V281l-7.09-.73h-2.81c-1,0-1.46-.7-1.46-2.09l.73-1.46a5.43,5.43,0,0,1-.73-2.81c0-.63,1.42-1.32,4.27-2.09a5.63,5.63,0,0,0,.73-2.92c0-2-1.66-3.16-5-3.44V241.35l.73-1.36-1.36-.72h-9.17c-1,0-1.46-.46-1.46-1.36s.63-1.46,1.46-1.46h8.44c.91,0,1.36-.48,1.36-1.46V211.74c0-1,.73-1.46,2.19-1.46s5.91-.21,13.34-.62V166.6q0-2.19-7.71-2.19h-1.46V153.15l5-2.82v-1.45c0-.91-.48-1.36-1.46-1.36h-8.44a1.29,1.29,0,0,1-1.46-1.46V121.35l.73-1.35Q405,119.27,412,119.27ZM385.22,204h3.54c.91.14,1.36.59,1.36,1.35v3.55a1.2,1.2,0,0,1-1.36,1.35h-3.54c-1,0-1.46-.45-1.46-1.35v-3.55C384,204.48,384.46,204,385.22,204Zm25.44,78.29H417V281h-5Q410.66,281.18,410.66,282.32Zm76.21.73v2.82c.14,1,.63,1.46,1.46,1.46h9.8a4.92,4.92,0,0,1,.73-2.19,4.88,4.88,0,0,1-.73-2.09Z"/><path class="cls-1" d="M601,119a4.88,4.88,0,0,0,2.71.73h2.08q15,0,19.91,3.44h4.07q2.09,0,17.83,6.78h6.88c.69,0,1.39.69,2.08,2.08-.48.49-2.33.73-5.52.73q12.41,10.95,12.4,12.31v.73q-.3,1.14-26.16,25.33h-9.59q-14-13.44-21.27-14.39h-.63q-13.75,0-13.76,5.53-2.92,0-3.44,9.59l.73,3.44h6.15q2.29,0,6.15,3.44,4.8.94,4.8,2.71l-.63,1.36,1.36.73h16.47v2.08H609.88v.63q.21,1.88,14.38,6.88,27.21,8,43.27,22,0,.82,6.88,8.23-8.24.63-8.23,2c1,0,1.73,1.15,2.08,3.44h8.24q1.88,0,4.06,8.24l-1.35.73h-6.88c-.91.14-1.36.59-1.36,1.36h9c.62,0,1.28.69,2,2.08v1.36a1.2,1.2,0,0,1-1.36,1.35h-6.88v.73q0,3.55.73,11.68,0,11.37-8.23,26.79c-.91.14-1.36.59-1.36,1.36v1.35h9.59c.9.14,1.36.6,1.36,1.36q-.84,0-8.86,9-17.94,13.65-48.8,13.65h-.62q-37.85,0-61.83-23.35-17.82-1.14-17.83-7.51-6.55-5.94-6.88-10.94a175.17,175.17,0,0,1,15.75-9.6l2.81.63q2-.53,19.91-11.68h8.24q1.14,0,7.51,10.32V259h-2.09v1.36q11.68,10.32,23.36,10.32,17.82-2.92,17.82-17.21,0-2.19-3.44-9.59h6.89v-.62a5.76,5.76,0,0,0-5.43-3.44H615.4a52.79,52.79,0,0,1-7.61-.73l-1.35.73a4.93,4.93,0,0,0-2.09-.73V237.7h.73q1.88,0,13.76-.73v-1.35l-19.29-6.15a18.61,18.61,0,0,1-4.79-.74,4.93,4.93,0,0,1-2.71.74,73.45,73.45,0,0,0-12.41-4.18v-1.35h4.9v-1.36q-21.27-7.92-28.88-21.26a32.08,32.08,0,0,1-6.15-15.75l1.36-.73h2.71a.65.65,0,0,1,.73.73,7.79,7.79,0,0,1,4.06-.73v-1.35h-8.86v-1.36c2.3,0,3.44-.45,3.44-1.35L548.16,178c-.7-1.8-1.39-2.71-2.09-2.71h-7.61v-5.52q0-21.48,19.91-37.75h2.09a.65.65,0,0,1,.73.73l1.35-.73,1.36.73c2.78-.48,4.17-1.18,4.17-2.08l-1.46-.73h-4.07v-.63q8.87-5.1,8.87-6.15,0-2,16.47-3.44H598.2A5.49,5.49,0,0,0,601,119Zm-68,64.54h1.35v1.35H533Zm3.44,0h2v1.35h-2Zm24.71,0v1.35h.62v-1.35Zm2,0v1.35h2.08a1.19,1.19,0,0,0-1.35-1.35ZM568.69,250v1.46h.73V250Zm20.65-12.3h6.77v2.09l-4.79-.73h-2Z"/><path class="cls-1" d="M708,119.47H825.26a5.79,5.79,0,0,0,5.63,0,5.15,5.15,0,0,1,1.45,2.82l-.72,1.46a10.27,10.27,0,0,0,2.81,5.63v26.69l-.73,1.35-3.55-.62h-14.7l-4.27.62a7.51,7.51,0,0,0-3.44-.62l-4.9.62a6.27,6.27,0,0,0-2.81-.62l-1.46.62c-.49,0-.73-.21-.73-.62l-3.44.62h-7.09V182q0,1.46-5.63,2.19c0,1.81-.46,2.71-1.36,2.71H774c-.9.21-1.35.69-1.35,1.46s.59,1.35,1.35,1.35h7.09l1.35.73-.72,3.55v6.36l4.27,2.81c0,.91-2.81,1.6-8.44,2.09v41.39c0,1.32-2.37,2.26-7.09,2.81v.73h10.63q4.17,1.88,4.17,2.82V308.6a1.19,1.19,0,0,1-1.35,1.35H755.72q-7.1,0-21.06-.73-.74-12.93-.73-19V252.3c-4.25-.9-6.36-1.84-6.36-2.82l-1.36.73h-6.36v-.73a1.38,1.38,0,0,1,1.46-1.35l3.44.73a4.92,4.92,0,0,1,2.19-.73V205.9c.14-.9.59-1.35,1.36-1.35h6.36v-2.82c-2.37,0-3.55-.45-3.55-1.35V191.2a1.29,1.29,0,0,0-1.46-1.46H723.4c-1,0-1.46-.45-1.46-1.35s.62-1.46,1.46-1.46h6.25l2.82-3.44H736l.73-6.36c0-.9-.24-1.36-.73-1.36l.73-3.54V161a4.16,4.16,0,0,0-2.81-4.17c-.49,0-.73.21-.73.62l-3.55-.62H689a1.29,1.29,0,0,1-1.46-1.46V128.65c-1.88,0-2.81-.45-2.81-1.36v-.73a5.43,5.43,0,0,1,.73-2.81,5.46,5.46,0,0,1-.73-2.82.65.65,0,0,0,.73-.73Q700.56,119.48,708,119.47Zm6.25,67.46h1.46c.9.21,1.36.69,1.36,1.46a1.2,1.2,0,0,1-1.36,1.35h-1.46a1.2,1.2,0,0,1-1.36-1.35C713,187.42,713.46,186.93,714.22,186.93Zm19.71,55.57v1.35h.73V242.5Z"/></svg>